<svg width="194" height="155" viewBox="0 0 194 155" fill="none" xmlns="http://www.w3.org/2000/svg">
<path d="M141.725 151.342C135.525 147.842 130.825 141.742 128.725 134.642C126.725 127.742 127.725 122.742 131.925 118.642C135.425 115.042 139.125 114.442 144.925 116.542C147.925 117.642 148.425 117.442 151.725 114.542C156.025 110.742 159.025 109.842 164.025 110.842C169.125 111.742 173.825 116.942 175.325 123.242C176.325 127.342 176.225 129.242 174.925 134.342C170.425 151.642 155.525 159.342 141.725 151.342ZM142.325 140.542C142.325 139.542 141.525 137.642 140.625 136.342C139.425 134.742 138.625 131.242 138.325 126.342L137.825 118.842L135.625 122.342C131.725 128.342 133.125 137.042 138.525 140.742C141.425 142.842 142.325 142.742 142.325 140.542Z" fill="#BF4150"/>
<path d="M103.525 140.341C101.725 139.241 99.3254 136.841 98.3254 135.041C96.4254 131.741 96.0254 131.641 86.6254 130.441C81.2254 129.741 71.2254 127.741 64.3254 125.941L51.7254 122.741L45.3254 125.041C23.7254 132.341 -3.27462 129.241 0.325384 119.741C2.02538 115.441 7.72538 113.841 21.3254 113.941C32.2254 113.941 34.9254 114.341 42.1254 116.741L50.5254 119.441L54.4254 116.741C56.6254 115.241 61.0254 111.241 64.2254 107.841C70.2254 101.441 83.3254 85.0415 83.3254 83.9415C83.3254 83.6415 81.2254 83.3415 78.6254 83.3415C64.1254 83.2415 49.2254 76.0415 43.5254 66.4415C39.9254 60.3415 39.8254 52.0415 43.3254 44.9415C48.3254 34.5415 61.6254 25.1415 73.3254 23.7415C80.1254 22.9415 79.2254 24.3415 72.3254 25.4415C57.2254 27.8415 46.9254 39.7415 46.9254 54.8415C47.0254 66.0415 51.6254 72.8415 62.3254 77.7415C68.0254 80.3415 84.1254 83.0415 85.3254 81.6415C85.6254 81.2415 91.1254 73.4415 97.3254 64.3415C111.825 43.2415 117.625 35.9415 128.725 24.7415C143.525 9.84148 157.225 2.24148 172.725 0.341477C190.125 -1.85852 197.525 6.74148 190.825 21.2415C185.625 32.3415 173.625 44.7415 156.325 56.9415C151.925 59.9415 148.525 62.9415 148.825 63.3415C149.125 63.8415 151.025 64.7415 153.125 65.4415C159.125 67.3415 164.825 71.0415 169.725 76.3415C174.925 81.9415 179.825 91.2415 178.325 92.7415C177.825 93.2415 174.825 93.6415 171.625 93.6415C160.725 93.6415 152.025 87.5415 148.425 77.3415C146.625 72.0415 146.525 71.9415 145.525 74.3415C142.625 81.6415 143.025 91.2415 146.925 110.841C147.425 112.941 147.225 113.541 146.525 112.841C144.725 111.141 142.225 97.3415 142.225 88.8415C142.225 84.4415 142.825 77.7415 143.725 73.8415C144.525 70.0415 145.025 66.7415 144.825 66.5415C144.325 66.0415 137.425 73.7415 133.525 79.2415C129.625 84.6415 125.325 92.7415 122.825 99.8415C120.525 106.241 118.825 108.041 119.725 103.341C120.725 97.7415 129.725 80.3415 135.225 73.6415C138.025 70.1415 140.125 67.3415 139.925 67.3415C139.725 67.3415 134.925 69.5415 129.225 72.2415C119.125 77.0415 103.325 82.3415 98.9254 82.3415C97.5254 82.3415 94.8254 84.9415 90.3254 90.4415C81.9254 100.941 71.9254 110.341 62.6254 116.441C58.4254 119.141 55.7254 121.541 56.4254 121.741C57.2254 121.941 59.4254 122.641 61.3254 123.241C66.8254 125.041 82.2254 127.341 88.6254 127.341H94.3254V119.241C94.3254 108.441 97.3254 103.041 104.025 101.741C108.725 100.841 111.425 101.841 115.725 105.941C119.025 109.141 119.725 109.441 123.325 108.841C128.025 108.041 131.025 108.841 132.325 111.241C133.025 112.641 132.525 113.841 129.825 116.841C125.525 121.441 123.725 127.441 125.125 132.141C126.625 136.741 125.925 137.841 120.325 140.241C114.125 142.941 107.825 142.941 103.525 140.341ZM34.3254 126.341C40.4254 124.941 46.5254 122.141 45.6254 121.241C42.0254 117.641 10.8254 115.541 4.82538 118.441C-3.77462 122.541 4.32538 127.341 19.8254 127.341C25.3254 127.341 31.8254 126.841 34.3254 126.341ZM104.325 125.241C104.325 124.541 103.825 122.341 103.225 120.241C102.225 117.041 102.325 115.641 103.825 111.841C104.725 109.241 105.225 106.941 104.925 106.641C103.825 105.441 99.3254 110.741 98.1254 114.541C97.2254 117.741 97.3254 118.941 98.8254 122.341C100.025 124.941 101.325 126.341 102.525 126.341C103.525 126.341 104.325 125.841 104.325 125.241ZM114.225 76.7415C146.325 66.0415 180.825 38.0415 186.925 17.7415C189.125 10.4415 188.725 7.64148 185.225 4.14148C182.325 1.14148 182.025 1.14147 174.725 1.54147C168.725 1.94147 165.825 2.74148 159.525 5.84148C148.625 11.2415 134.525 25.4415 123.925 41.8415C119.625 48.4415 112.125 59.8415 107.225 67.1415C96.9254 82.6415 96.8254 82.6415 114.225 76.7415Z" fill="currentColor"/>
</svg>
